<?xml version="1.0" encoding="utf-8"?>
<!-- Generator: Adobe Illustrator 23.0.1, SVG Export Plug-In . SVG Version: 6.00 Build 0)  -->
<svg version="1.1" id="Layer_1" xmlns="http://www.w3.org/2000/svg" xmlns:xlink="http://www.w3.org/1999/xlink" x="0px" y="0px"
	 viewBox="0 0 500 500" style="enable-background:new 0 0 500 500;" xml:space="preserve">
<style type="text/css">
	.st0{fill:#EBE5D8;}
	.st1{fill:none;}
	.st2{fill:#4B4A4A;}
</style>
<g>
	<circle class="st0" cx="250" cy="250" r="249.5"/>
	<g>
		<path class="st1" d="M211.8,244c-3.9,0.6-11.9,3.3-17.9,8c-6.1,4.8-9.7,12.3-12.1,16.6c0,0,0,0,0,0c0,0,0,0,0,0
			c-0.1,0.3-0.3,0.5-0.4,0.8c0.2-0.2,0.5-0.4,0.7-0.6c2.5-2,5-4.1,7.5-6.1c7.6-6.2,15.2-12.5,22.9-18.8c0,0,0,0,0,0
			C212.2,244,212,244,211.8,244z"/>
		<path class="st1" d="M223.9,256.6c0.2,0.1,0.3,0.2,0.5,0.3c1.4,0.6,2.9,1,4.4,1.5c4.7,1.4,9.5,2.2,14.4,2.6c0.2,0,0.5,0,0.7,0.1
			c0,0,0,0,0,0c0,0,0,0,0,0c2.6,0.2,5.2,0.3,7.8,0.3c0.2,0,0.4,0,0.5,0c3.3,0,6.6-0.2,9.8-0.6c0.5-0.1,1-0.2,1.6-0.2
			c0.3-0.1,0.7-0.1,1-0.2c0,0,0,0,0,0c0,0,0,0,0,0c0.4-0.1,0.8-0.2,1.2-0.2c0.9-0.2,1.7-0.3,2.6-0.5c0,0,0.1,0,0.1,0
			c1.2-0.3,2.3-0.6,3.5-0.9c0.2-0.1,0.4-0.1,0.6-0.2c1.7-0.5,3.3-1,4.9-1.6c2.2-0.8,4.4-1.8,6.5-2.8c0.4-0.2,0.8-0.4,1.2-0.6
			c0.1,0,0.2-0.1,0.3-0.2c0.9-0.5,1.9-1,2.8-1.5c4.9-2.9,9.3-6.4,13.3-10.5c0.1-0.1,0.1-0.1,0.2-0.2c3.3-3.3,6.2-7,9-11.1
			c0.3-0.5,0.6-1.1,0.8-1.6C288.5,256.7,259,265.1,223.9,256.6z"/>
		<path class="st2" d="M272.3,176.8c2.5,0.6,4.7-1.6,4.1-4.1c-0.3-1.2-1.2-2.1-2.4-2.4c-2.5-0.6-4.7,1.6-4.1,4.1
			C270.2,175.6,271.2,176.5,272.3,176.8z"/>
		<g>
			<path class="st1" d="M210.8,150c5.7-5.3,12.2-9.3,19.3-12.4c11.1-4.9,22.7-6.8,34.9-5.7c9.4,0.9,18.2,3.4,26.5,8
				c10.3,5.7,19,13.1,26.4,22.3c-0.1-0.3-0.2-0.7-0.3-1c-4.6-11-11.9-19.9-21.1-27.4c-10.7-8.6-22.8-13.9-36.5-15.5
				c-7.4-0.9-14.7-1-21.9,0.3c-14.2,2.5-26.7,8.8-37.1,18.8c-13.2,12.5-20.1,28.1-21.5,46.1c-0.9,11.1,0.5,21.9,4.1,32.5
				c1,3,2.4,5.8,3.6,8.8c0-3.4-0.6-6.6-1-9.8c-0.8-7.9-0.5-15.8,1.1-23.6c1.6-7.8,4-15.4,8-22.4C199.3,161.7,204.7,155.5,210.8,150z
				"/>
			<path class="st1" d="M211.8,244c-3.9,0.6-11.9,3.3-17.9,8c-6.1,4.8-9.7,12.3-12.1,16.6c0,0,0,0,0,0c0,0,0,0,0,0
				c-0.1,0.3-0.3,0.5-0.4,0.8c0.2-0.2,0.5-0.4,0.7-0.6c2.5-2,5-4.1,7.5-6.1c7.6-6.2,15.2-12.5,22.9-18.8c0,0,0,0,0,0
				C212.2,244,212,244,211.8,244z"/>
			<path class="st1" d="M250.4,223.3c7.3-6.8,10.9-16,10.9-27.4c-0.2-2.3-1-4.3-2.2-5.9c-1-1.3-2.3-2.3-3.9-3
				c-5.1-2.1-11.9,0.2-18.7,6.3c-1.9,2.5-18.2,25.9-30.8,44.2c4.4-0.1,10.8-0.5,17.6-1.8C232.6,233.8,242.9,230.3,250.4,223.3z"/>
			<path class="st1" d="M273.1,255.6c-15,5-31.2,5.4-49.2,1.1c0.2,0.1,0.3,0.2,0.5,0.3c1.4,0.6,2.9,1,4.4,1.5
				c4.7,1.4,9.5,2.2,14.4,2.6c0.2,0,0.5,0,0.7,0.1c0,0,0,0,0,0c0,0,0,0,0,0c2.6,0.2,5.2,0.3,7.8,0.3c0.2,0,0.4,0,0.5,0
				c3.3,0,6.6-0.2,9.8-0.6c0.5-0.1,1-0.2,1.6-0.2c0.3-0.1,0.7-0.1,1-0.2c0,0,0,0,0,0c0,0,0,0,0,0c0.4-0.1,0.8-0.2,1.2-0.2
				c0.9-0.2,1.7-0.3,2.6-0.5c0,0,0.1,0,0.1,0c1.2-0.3,2.3-0.6,3.5-0.9c0.2-0.1,0.4-0.1,0.6-0.2c1.7-0.5,3.3-1,4.9-1.6
				c2.2-0.8,4.4-1.8,6.5-2.8c0.4-0.2,0.8-0.4,1.2-0.6c0.1,0,0.2-0.1,0.3-0.2c0.9-0.5,1.9-1,2.8-1.5c4.9-2.9,9.3-6.4,13.3-10.5
				c0.1-0.1,0.1-0.1,0.2-0.2c3.3-3.3,6.2-7,9-11.1c0.3-0.5,0.6-1.1,0.8-1.6C300.4,242.2,287.3,250.9,273.1,255.6z"/>
			<path class="st1" d="M251.7,246.1c12.6-4.6,22.4-12.5,28.4-24.7c4.2-8.6,5.1-17.8,4.1-27.2c-0.3-3.2-0.8-6.3-1-9.5
				c-0.2-4.2,0.8-8.2,3.5-11.6c0.6-0.8,1.1-1.6,1.6-2.3c-4.1-2.6-7.9-5.1-11.9-7.5c-3.2-1.9-6.6-2.9-10.5-2.6
				c-5.3,0.5-9.5,3.1-12.7,7c-3.6,4.4-7.1,8.9-10.4,13.5c5.2-2.1,10.3-2.3,14.8-0.5c3.4,1.4,6,3.8,7.9,6.9c1.4,2.3,2.3,5,2.5,7.9
				l0,0.2c0.1,13.4-4.3,24.4-13.1,32.6c-7.7,7.2-17.7,11.2-27.2,13.4c-1,0.2-2,0.4-2.9,0.6c-0.1,0-0.2,0.1-0.2,0.1
				c-2.9,2.1-5.6,4.6-8.5,7c0.6,0.3,1.1,0.5,1.5,0.6c1.6,0.2,3.2,0.5,4.8,0.5C232.5,251.1,242.2,249.6,251.7,246.1z"/>
			<path class="st1" d="M305.4,158.1c-15.7-15.3-34.3-21.6-56.1-18.9c-13.1,1.7-24.5,7.1-34.3,15.7c-14.9,13.1-22.2,30-22.7,49.7
				c-0.1,3.8,0.3,7.7,0.5,11.5c0.4,5.7,1.7,11.3,3.4,16.8c0.3,0.9,0.8,1.7,1.5,2.9c0.8-1.1,1.2-1.7,1.6-2.3
				c6.3-9.4,12.5-18.7,18.9-28.1c7.1-10.3,14.2-20.6,21.4-30.8c0.4-0.6,0.9-1.3,1.3-1.9c1.4-2,2.9-4.1,4.5-6
				c0.7-0.9,1.5-1.8,2.3-2.7c0.6-0.7,1.3-1.4,2-2.1c0.5-0.5,0.9-0.9,1.4-1.4c0.3-0.3,0.8-0.7,1.1-0.9c0.3-0.2,0.6-0.5,0.9-0.7
				c0.9-0.7,1.9-1.3,2.8-1.8c0.1-0.1,0.2-0.1,0.3-0.2c1.6-0.9,3.4-1.5,5.1-2c0.1,0,0.2-0.1,0.3-0.1c6.2-1.5,13-0.6,18.8,2.9
				c1,0.6,1.9,1.3,2.9,1.9c1.3,0.8,2.6,1.7,3.9,2.6c4,3,8.2,5.3,13.1,6c1,0.2,1.9,0.5,2.9,0.8c0,0.2,0,0.4,0.1,0.6
				c-1.4,0.7-2.8,1.3-4.1,2c-6.2,3.2-9.5,8.1-9,15.2c0.2,2.7,0.4,5.3,0.7,8c0,0.4,0.1,0.8,0.1,1.1c0.3,3.8,0.3,7.5-0.1,11.3
				c0,0.1,0,0.2,0,0.2c-0.3,2.5-0.8,4.9-1.4,7.4c-0.3,1.3-0.7,2.6-1.2,3.8c-6.3,17.4-19,28-36.2,33.7c-0.7,0.2-1.4,0.5-2,0.7
				c6.2-0.1,12.2-0.7,18.1-2.2c10.7-2.8,20.2-8,28.4-15.4c8.6-7.7,15.1-16.9,19.3-27.7c3.1-8.1,4.2-16.5,4.7-25c0.2-2.9-0.5-5.5-2-8
				C314.9,168.6,310.5,163.1,305.4,158.1z"/>
			<g>
				<path class="st1" d="M250.4,223.3c7.3-6.8,10.9-16,10.9-27.4c-0.2-2.3-1-4.3-2.2-5.9c-1-1.3-2.3-2.3-3.9-3
					c-5.1-2.1-11.9,0.2-18.7,6.3c-1.9,2.5-18.2,25.9-30.8,44.2c4.4-0.1,10.8-0.5,17.6-1.8C232.6,233.8,242.9,230.3,250.4,223.3z"/>
				<path class="st1" d="M210.8,150c5.7-5.3,12.2-9.3,19.3-12.4c11.1-4.9,22.7-6.8,34.9-5.7c9.4,0.9,18.2,3.4,26.5,8
					c10.3,5.7,19,13.1,26.4,22.3c-0.1-0.3-0.2-0.7-0.3-1c-4.6-11-11.9-19.9-21.1-27.4c-10.7-8.6-22.8-13.9-36.5-15.5
					c-7.4-0.9-14.7-1-21.9,0.3c-14.2,2.5-26.7,8.8-37.1,18.8c-13.2,12.5-20.1,28.1-21.5,46.1c-0.9,11.1,0.5,21.9,4.1,32.5
					c1,3,2.4,5.8,3.6,8.8c0-3.4-0.6-6.6-1-9.8c-0.8-7.9-0.5-15.8,1.1-23.6c1.6-7.8,4-15.4,8-22.4C199.3,161.7,204.7,155.5,210.8,150
					z"/>
				<path class="st1" d="M211.8,244c-3.9,0.6-11.9,3.3-17.9,8c-6.1,4.8-9.7,12.3-12.1,16.6c0,0,0,0,0,0c0,0,0,0,0,0
					c-0.1,0.3-0.3,0.5-0.4,0.8c0.2-0.2,0.5-0.4,0.7-0.6c2.5-2,5-4.1,7.5-6.1c7.6-6.2,15.2-12.5,22.9-18.8c0,0,0,0,0,0
					C212.2,244,212,244,211.8,244z"/>
				<path class="st1" d="M305.4,158.1c-15.7-15.3-34.3-21.6-56.1-18.9c-13.1,1.7-24.5,7.1-34.3,15.7c-14.9,13.1-22.2,30-22.7,49.7
					c-0.1,3.8,0.3,7.7,0.5,11.5c0.4,5.7,1.7,11.3,3.4,16.8c0.3,0.9,0.8,1.7,1.5,2.9c0.8-1.1,1.2-1.7,1.6-2.3
					c6.3-9.4,12.5-18.7,18.9-28.1c7.1-10.3,14.2-20.6,21.4-30.8c0.4-0.6,0.9-1.3,1.3-1.9c1.4-2,2.9-4.1,4.5-6
					c0.7-0.9,1.5-1.8,2.3-2.7c0.6-0.7,1.3-1.4,2-2.1c0.5-0.5,0.9-0.9,1.4-1.4c0.3-0.3,0.8-0.7,1.1-0.9c0.3-0.2,0.6-0.5,0.9-0.7
					c0.9-0.7,1.9-1.3,2.8-1.8c0.1-0.1,0.2-0.1,0.3-0.2c1.6-0.9,3.4-1.5,5.1-2c0.1,0,0.2-0.1,0.3-0.1c6.2-1.5,13-0.6,18.8,2.9
					c1,0.6,1.9,1.3,2.9,1.9c1.3,0.8,2.6,1.7,3.9,2.6c4,3,8.2,5.3,13.1,6c1,0.2,1.9,0.5,2.9,0.8c0,0.2,0,0.4,0.1,0.6
					c-1.4,0.7-2.8,1.3-4.1,2c-6.2,3.2-9.5,8.1-9,15.2c0.2,2.7,0.4,5.3,0.7,8c0,0.4,0.1,0.8,0.1,1.1c0.3,3.8,0.3,7.5-0.1,11.3
					c0,0.1,0,0.2,0,0.2c-0.3,2.5-0.8,4.9-1.4,7.4c-0.3,1.3-0.7,2.6-1.2,3.8c-6.3,17.4-19,28-36.2,33.7c-0.7,0.2-1.4,0.5-2,0.7
					c6.2-0.1,12.2-0.7,18.1-2.2c10.7-2.8,20.2-8,28.4-15.4c8.6-7.7,15.1-16.9,19.3-27.7c3.1-8.1,4.2-16.5,4.7-25
					c0.2-2.9-0.5-5.5-2-8C314.9,168.6,310.5,163.1,305.4,158.1z"/>
				<path class="st1" d="M251.7,246.1c12.6-4.6,22.4-12.5,28.4-24.7c4.2-8.6,5.1-17.8,4.1-27.2c-0.3-3.2-0.8-6.3-1-9.5
					c-0.2-4.2,0.8-8.2,3.5-11.6c0.6-0.8,1.1-1.6,1.6-2.3c-4.1-2.6-7.9-5.1-11.9-7.5c-3.2-1.9-6.6-2.9-10.5-2.6
					c-5.3,0.5-9.5,3.1-12.7,7c-3.6,4.4-7.1,8.9-10.4,13.5c5.2-2.1,10.3-2.3,14.8-0.5c3.4,1.4,6,3.8,7.9,6.9c1.4,2.3,2.3,5,2.5,7.9
					l0,0.2c0.1,13.4-4.3,24.4-13.1,32.6c-7.7,7.2-17.7,11.2-27.2,13.4c-1,0.2-2,0.4-2.9,0.6c-0.1,0-0.2,0.1-0.2,0.1
					c-2.9,2.1-5.6,4.6-8.5,7c0.6,0.3,1.1,0.5,1.5,0.6c1.6,0.2,3.2,0.5,4.8,0.5C232.5,251.1,242.2,249.6,251.7,246.1z"/>
				<path class="st1" d="M273.1,255.6c-15,5-31.2,5.4-49.2,1.1c0.2,0.1,0.3,0.2,0.5,0.3c1.4,0.6,2.9,1,4.4,1.5
					c4.7,1.4,9.5,2.2,14.4,2.6c0.2,0,0.5,0,0.7,0.1c0,0,0,0,0,0c0,0,0,0,0,0c2.6,0.2,5.2,0.3,7.8,0.3c0.2,0,0.4,0,0.5,0
					c3.3,0,6.6-0.2,9.8-0.6c0.5-0.1,1-0.2,1.6-0.2c0.3-0.1,0.7-0.1,1-0.2c0,0,0,0,0,0c0,0,0,0,0,0c0.4-0.1,0.8-0.2,1.2-0.2
					c0.9-0.2,1.7-0.3,2.6-0.5c0,0,0.1,0,0.1,0c1.2-0.3,2.3-0.6,3.5-0.9c0.2-0.1,0.4-0.1,0.6-0.2c1.7-0.5,3.3-1,4.9-1.6
					c2.2-0.8,4.4-1.8,6.5-2.8c0.4-0.2,0.8-0.4,1.2-0.6c0.1,0,0.2-0.1,0.3-0.2c0.9-0.5,1.9-1,2.8-1.5c4.9-2.9,9.3-6.4,13.3-10.5
					c0.1-0.1,0.1-0.1,0.2-0.2c3.3-3.3,6.2-7,9-11.1c0.3-0.5,0.6-1.1,0.8-1.6C300.4,242.2,287.3,250.9,273.1,255.6z"/>
				<path class="st2" d="M328,176.6c-1.5-10.6-8-26.4-14.4-35c-11.1-14.6-25.9-24.3-44.4-28.9c-7.9-2-16.1-2.6-24.3-1.9
					c-7.9,0.7-15.6,2.2-23,5.1c-11.2,4.5-20.8,11.2-29,20c-11.2,12-17.5,26.3-19.8,42.4c-1.1,8-0.8,15.9,0.4,23.9
					c2,13.8,7.3,26.1,15.7,37.2c1,1.3,2.1,2.6,3.1,3.9c-0.7,1-1.2,1.8-1.8,2.7c-5.8,8.2-11.6,16.4-17.3,24.7
					c-1.6,2.4-3.1,4.9-4.3,7.6c-1,2.2,0.7,4.6,3,4.5c0.9,0,1.8-0.5,2.5-1c4-3,8-5.9,11.9-9c7.1-5.6,14.1-11.3,21.4-17.2
					c2,1.2,3.8,2.4,5.7,3.4c11.5,6.2,23.9,8.9,36.8,9.1c9.8,0.2,19.2-1.5,28.4-5c20.8-8,35.7-22.4,44.1-43
					C328.4,206.2,330.2,191.6,328,176.6z M187.2,191.2c-1.6,7.8-1.9,15.7-1.1,23.6c0.3,3.2,1,6.4,1,9.8c-1.2-2.9-2.6-5.8-3.6-8.8
					c-3.6-10.5-5-21.4-4.1-32.5c1.4-18,8.3-33.6,21.5-46.1c10.5-10,22.9-16.3,37.1-18.8c7.3-1.3,14.5-1.1,21.9-0.3
					c13.8,1.6,25.8,6.9,36.5,15.5c9.3,7.4,16.5,16.3,21.1,27.4c0.1,0.3,0.2,0.7,0.3,1c-7.4-9.2-16.2-16.6-26.4-22.3
					c-8.2-4.6-17.1-7.1-26.5-8c-12.2-1.1-23.7,0.8-34.9,5.7c-7.1,3.1-13.6,7.2-19.3,12.4c-6.1,5.6-11.4,11.7-15.5,18.9
					C191.3,175.8,188.9,183.4,187.2,191.2z M189.5,262.7c-2.5,2-5,4.1-7.5,6.1c-0.2,0.2-0.5,0.4-0.7,0.6c0.1-0.2,0.3-0.5,0.4-0.8
					c0,0,0,0,0,0c0,0,0,0,0,0c2.4-4.4,6-11.8,12.1-16.6c6-4.7,14-7.4,17.9-8c0.2,0,0.4,0,0.6,0c0,0,0,0,0,0
					C204.7,250.3,197.1,256.5,189.5,262.7z M205.7,237.5c12.6-18.2,28.9-41.7,30.8-44.2c6.8-6.1,13.6-8.4,18.7-6.3
					c1.6,0.6,2.9,1.7,3.9,3c1.2,1.6,2,3.6,2.2,5.9c0.1,11.4-3.6,20.6-10.9,27.4c-7.5,7-17.7,10.6-27.1,12.4
					C216.4,237,210.1,237.4,205.7,237.5z M217.6,250c-0.4-0.1-0.9-0.3-1.5-0.6c2.9-2.4,5.6-4.9,8.5-7c0.1,0,0.2-0.1,0.2-0.1
					c1-0.2,1.9-0.4,2.9-0.6c9.4-2.2,19.4-6.2,27.2-13.4c8.8-8.2,13.2-19.1,13.1-32.6l0-0.2c-0.2-2.9-1.1-5.6-2.5-7.9
					c-1.8-3.1-4.5-5.5-7.9-6.9c-4.5-1.8-9.6-1.6-14.8,0.5c3.3-4.6,6.7-9.2,10.4-13.5c3.3-3.9,7.4-6.6,12.7-7
					c3.8-0.3,7.3,0.7,10.5,2.6c3.9,2.4,7.8,4.9,11.9,7.5c-0.5,0.7-1,1.6-1.6,2.3c-2.7,3.4-3.7,7.4-3.5,11.6c0.1,3.2,0.6,6.4,1,9.5
					c1,9.4,0.1,18.6-4.1,27.2c-6,12.2-15.8,20.1-28.4,24.7c-9.5,3.5-19.2,4.9-29.3,4.4C220.8,250.5,219.2,250.2,217.6,250z
					 M310.8,230c-2.7,4-5.7,7.7-9,11.1c-0.1,0.1-0.1,0.1-0.2,0.2c-4,4.1-8.4,7.6-13.3,10.5c-0.9,0.5-1.8,1-2.8,1.5
					c-0.1,0-0.2,0.1-0.3,0.2c-0.4,0.2-0.8,0.4-1.2,0.6c-2.1,1-4.3,2-6.5,2.8c-1.6,0.6-3.2,1.1-4.9,1.6c-0.2,0.1-0.4,0.1-0.6,0.2
					c-1.1,0.3-2.3,0.6-3.5,0.9c0,0-0.1,0-0.1,0c-0.8,0.2-1.7,0.3-2.6,0.5c-0.4,0.1-0.8,0.2-1.2,0.2c0,0,0,0,0,0c0,0,0,0,0,0
					c-0.3,0.1-0.7,0.1-1,0.2c-0.5,0.1-1,0.2-1.6,0.2c-3.3,0.4-6.5,0.6-9.8,0.6c-0.2,0-0.4,0-0.5,0c-2.6,0-5.2-0.1-7.8-0.3
					c0,0,0,0,0,0c0,0,0,0,0,0c-0.2,0-0.5,0-0.7-0.1c-4.9-0.4-9.7-1.2-14.4-2.6c-1.5-0.4-2.9-0.9-4.4-1.5c-0.2-0.1-0.3-0.2-0.5-0.3
					c18,4.4,34.2,3.9,49.2-1.1c14.2-4.7,27.3-13.4,38.6-27.1C311.4,229,311.2,229.5,310.8,230z M315.8,207.7
					c-4.2,10.8-10.7,20-19.3,27.7c-8.2,7.4-17.7,12.6-28.4,15.4c-5.9,1.6-12,2.1-18.1,2.2c0.7-0.2,1.3-0.5,2-0.7
					c17.2-5.7,29.9-16.3,36.2-33.7c0.5-1.3,0.8-2.5,1.2-3.8c0.7-2.4,1.1-4.9,1.4-7.4c0-0.1,0-0.2,0-0.2c0.4-3.7,0.5-7.5,0.1-11.3
					c0-0.4-0.1-0.8-0.1-1.1c-0.2-2.7-0.5-5.3-0.7-8c-0.5-7.1,2.8-12,9-15.2c1.4-0.7,2.7-1.3,4.1-2c0-0.2,0-0.4-0.1-0.6
					c-1-0.3-1.9-0.6-2.9-0.8c-4.9-0.8-9.1-3.1-13.1-6c-1.3-0.9-2.6-1.8-3.9-2.6c-1-0.6-1.9-1.3-2.9-1.9c-5.8-3.5-12.5-4.4-18.8-2.9
					c-0.1,0-0.2,0.1-0.3,0.1c-1.8,0.5-3.5,1.1-5.1,2c-0.1,0.1-0.2,0.1-0.3,0.2c-1,0.5-1.9,1.1-2.8,1.8c-0.3,0.2-0.6,0.5-0.9,0.7
					c-0.3,0.2-0.8,0.6-1.1,0.9c-0.5,0.4-1,0.9-1.4,1.4c-0.7,0.7-1.3,1.4-2,2.1c-0.8,0.9-1.6,1.8-2.3,2.7c-1.6,1.9-3,4-4.5,6
					c-0.4,0.6-0.9,1.3-1.3,1.9c-7.2,10.2-14.3,20.5-21.4,30.8c-6.4,9.3-12.6,18.7-18.9,28.1c-0.4,0.6-0.8,1.2-1.6,2.3
					c-0.6-1.2-1.2-2-1.5-2.9c-1.6-5.5-3-11.1-3.4-16.8c-0.3-3.8-0.6-7.7-0.5-11.5c0.5-19.8,7.8-36.6,22.7-49.7
					c9.8-8.6,21.2-14,34.3-15.7c21.8-2.8,40.4,3.6,56.1,18.9c5.1,5,9.4,10.5,13.1,16.6c1.5,2.5,2.2,5.1,2,8
					C320,191.2,318.9,199.6,315.8,207.7z"/>
			</g>
		</g>
	</g>
	<g>
		<path class="st2" d="M108.9,310.4c0,0.4,0.5,0.6,0.8,0.3c3.3-4.2,8.1-5.7,12.6-5.7c9.9,0,16.7,6.7,16.7,17v23.1
			c0,1.7-1.4,3.1-3.1,3.1h0c-1.7,0-3.1-1.4-3.1-3.1v-20.9c0-8.1-4.2-12.8-11.5-12.8c-6.7,0-12.3,4.9-12.3,13v20.7
			c0,1.7-1.4,3.1-3.1,3.1h0c-1.7,0-3.1-1.4-3.1-3.1v-58.1c0-1.7,1.4-3.1,3.1-3.1h0c1.7,0,3.1,1.4,3.1,3.1V310.4z"/>
		<path class="st2" d="M194.5,326.2c0,12.6-9,22.1-21.1,22.1c-12,0-21-9.5-21-22.1c0-12.5,9-22,21-22
			C185.5,304.2,194.5,313.6,194.5,326.2z M158.8,326.2c0,9.2,6.3,15.8,14.6,15.8c8.3,0,14.6-6.6,14.6-15.8c0-9.1-6.3-15.8-14.6-15.8
			C165.1,310.4,158.8,317,158.8,326.2z"/>
		<path class="st2" d="M249.3,326.2c0,12.8-8.7,22.1-20,22.1c-6.1,0-10.7-2.4-13.8-6.2c-0.3-0.3-0.8-0.1-0.8,0.3v19.8
			c0,1.7-1.4,3.2-3.2,3.2h0c-1.7,0-3.2-1.4-3.2-3.2v-53.9c0-1.7,1.4-3.2,3.2-3.2h0c1.7,0,3.2,1.4,3.2,3.2v1.9c0,0.4,0.5,0.6,0.8,0.3
			c3.2-3.7,7.7-6.2,13.8-6.2C240.6,304.2,249.3,313.5,249.3,326.2z M214.3,326.2c0,9,5.9,15.8,14.2,15.8c8.6,0,14.3-7,14.3-15.8
			c0-8.7-5.8-15.8-14.3-15.8C220.2,310.4,214.3,317.2,214.3,326.2z"/>
		<path class="st2" d="M297.9,347.4L297.9,347.4c-1.7,0-3.1-1.4-3.1-3.1v-1.9c0-0.4-0.5-0.6-0.8-0.3c-3.2,3.8-7.8,6.2-13.9,6.2
			c-11.2,0-20-9.3-20-22.1c0-12.7,8.7-22,20-22c6.1,0,10.7,2.4,13.9,6.2c0.3,0.3,0.8,0.1,0.8-0.3v-1.9c0-1.7,1.4-3.1,3.1-3.1h0
			c1.7,0,3.1,1.4,3.1,3.1v36.1C301.1,346,299.6,347.4,297.9,347.4z M266.6,326.2c0,8.8,5.8,15.8,14.3,15.8c8.3,0,14.2-6.8,14.2-15.8
			c0-8.9-5.9-15.8-14.2-15.8C272.3,310.4,266.6,317.4,266.6,326.2z"/>
		<path class="st2" d="M346.3,311.3c-0.7,1.4-2.4,2-3.8,1.3c-2.8-1.4-6.7-2.6-10.7-2.6c-5.7,0-9.5,2.6-9.5,6.7c0,3.5,2.9,5.3,8.2,6
			l4.7,0.6c8.5,1.2,13.4,4.9,13.4,11.8c0,8.1-6.8,13.1-17.6,13.1c-4.4,0-9.8-1-14.5-3.8c-1.3-0.8-1.7-2.5-0.9-3.8l0,0
			c0.8-1.4,2.6-1.8,4-1c2.8,1.7,6.3,2.9,11.4,2.9c6.8,0,11-2.4,11-6.8c0-3.4-2.7-5.5-8.4-6.2l-4.8-0.6c-9-1.2-13.2-5.4-13.2-11.7
			c0-8,6.4-12.8,16-12.8c5.1,0,9.8,1.2,13.4,3.1c1.4,0.7,2,2.5,1.2,3.9L346.3,311.3z"/>
		<path class="st2" d="M397.4,326l0,2.1c0,0.2-0.2,0.4-0.4,0.4h-31.3c-0.3,0-0.5,0.2-0.4,0.5c1.1,8.8,7,13.3,14.1,13.3
			c4,0,9.1-1.3,12.1-3.6c1.2-0.9,2.8-0.7,3.7,0.5l0,0c1,1.4,0.7,3.4-0.6,4.4c-4.4,3.4-10.6,4.5-15.6,4.5c-11.8,0-20.2-8.9-20.2-22
			c0-13,8.5-22.1,19.9-22.1C389.5,304.2,397.3,313.1,397.4,326z M365.8,323.1l24.7,0c0.3,0,0.5-0.2,0.4-0.5
			c-1-7.6-5.8-12.5-12.5-12.5c-7.2,0-12,5.1-13.1,12.5C365.3,322.9,365.5,323.1,365.8,323.1z"/>
	</g>
</g>
</svg>
