<?xml version="1.0" encoding="utf-8"?>
<!-- Generator: Adobe Illustrator 23.0.1, SVG Export Plug-In . SVG Version: 6.00 Build 0)  -->
<svg version="1.2" baseProfile="tiny" id="Layer_1" xmlns="http://www.w3.org/2000/svg" xmlns:xlink="http://www.w3.org/1999/xlink"
	 x="0px" y="0px" viewBox="0 0 500 500" xml:space="preserve">
<g>
	<circle fill="#ED6D70" cx="250" cy="251.11" r="250"/>
	<g>
		<path fill="none" d="M211.7,245.13c-3.86,0.6-11.92,3.29-17.9,8c-6.15,4.84-9.74,12.28-12.12,16.66l-0.01,0.01l0,0
			c-0.15,0.28-0.3,0.54-0.43,0.79c0.22-0.19,0.45-0.37,0.68-0.56c2.49-2.05,5-4.1,7.49-6.15c7.59-6.24,15.2-12.48,22.9-18.8
			c-0.01,0-0.02,0-0.02,0C212.1,245.1,211.88,245.11,211.7,245.13z"/>
		<path fill="none" d="M223.87,257.76c0.15,0.1,0.3,0.22,0.47,0.29c1.44,0.57,2.91,1.05,4.38,1.49c4.69,1.4,9.52,2.2,14.45,2.65
			c0.24,0.02,0.48,0.05,0.73,0.07l0,0c0.01,0,0.02,0,0.02,0c2.59,0.22,5.21,0.34,7.81,0.34c0.18,0,0.37-0.01,0.55-0.01
			c3.29-0.02,6.59-0.21,9.85-0.65c0.52-0.07,1.03-0.15,1.55-0.23c0.34-0.05,0.68-0.1,1.02-0.16l0,0l0,0
			c0.39-0.07,0.77-0.15,1.17-0.23c0.86-0.16,1.73-0.32,2.58-0.51c0.04-0.01,0.1-0.03,0.14-0.04c1.18-0.27,2.33-0.56,3.47-0.87
			c0.22-0.06,0.42-0.13,0.64-0.2c1.69-0.48,3.33-1.04,4.94-1.63c2.25-0.83,4.42-1.79,6.52-2.83c0.39-0.2,0.81-0.39,1.2-0.59
			c0.09-0.05,0.18-0.11,0.28-0.15c0.93-0.49,1.86-1.01,2.76-1.55c4.89-2.92,9.32-6.45,13.35-10.54c0.07-0.07,0.13-0.13,0.21-0.2
			c3.27-3.34,6.26-7.05,9-11.08c0.33-0.49,0.57-1.06,0.84-1.6C288.55,257.84,259.06,266.27,223.87,257.76z"/>
		<path fill="#F3EFE3" d="M272.38,177.76c2.49,0.6,4.69-1.59,4.09-4.09c-0.29-1.18-1.25-2.14-2.42-2.42
			c-2.49-0.6-4.69,1.59-4.09,4.09C270.25,176.51,271.21,177.47,272.38,177.76z"/>
		<g>
			<path fill="none" d="M210.69,150.88c5.73-5.28,12.25-9.35,19.38-12.47c11.16-4.88,22.78-6.82,34.95-5.68
				c9.41,0.88,18.25,3.41,26.51,7.97c10.29,5.68,19.07,13.1,26.49,22.31c-0.1-0.34-0.15-0.7-0.29-1.02
				c-4.6-11.04-11.91-19.99-21.18-27.42c-10.74-8.62-22.83-13.89-36.61-15.51c-7.39-0.87-14.69-1.01-21.95,0.26
				c-14.28,2.5-26.71,8.84-37.22,18.82c-13.23,12.56-20.09,28.18-21.5,46.2c-0.86,11.08,0.53,21.99,4.11,32.55
				c1.01,2.99,2.39,5.85,3.6,8.77c-0.03-3.41-0.66-6.61-0.99-9.85c-0.82-7.92-0.5-15.8,1.11-23.6c1.62-7.84,4.02-15.41,8.02-22.42
				C199.24,162.59,204.62,156.46,210.69,150.88z"/>
			<path fill="none" d="M211.7,245.13c-3.86,0.6-11.92,3.29-17.9,8c-6.15,4.84-9.74,12.28-12.12,16.66l-0.01,0.01l0,0
				c-0.15,0.28-0.3,0.54-0.43,0.79c0.22-0.19,0.45-0.37,0.68-0.56c2.49-2.05,5-4.1,7.49-6.15c7.59-6.24,15.2-12.48,22.9-18.8
				c-0.01,0-0.02,0-0.02,0C212.1,245.1,211.88,245.11,211.7,245.13z"/>
			<path fill="none" d="M250.37,224.35c7.3-6.81,10.97-16.06,10.91-27.5c-0.17-2.3-0.96-4.32-2.2-5.92
				c-1.01-1.3-2.32-2.34-3.89-2.97c-5.12-2.07-11.95,0.25-18.77,6.35c-1.87,2.49-18.21,26-30.86,44.25
				c4.42-0.07,10.79-0.47,17.64-1.8C232.59,234.93,242.88,231.34,250.37,224.35z"/>
			<path fill="none" d="M273.18,256.7c-15,4.97-31.22,5.43-49.3,1.06c0.15,0.1,0.3,0.22,0.47,0.29c1.44,0.57,2.91,1.05,4.38,1.49
				c4.69,1.4,9.52,2.2,14.45,2.65c0.24,0.02,0.48,0.05,0.73,0.07l0,0c0.01,0,0.02,0,0.02,0c2.59,0.22,5.21,0.34,7.81,0.34
				c0.18,0,0.37-0.01,0.55-0.01c3.29-0.02,6.59-0.21,9.85-0.65c0.52-0.07,1.03-0.15,1.55-0.23c0.34-0.05,0.68-0.1,1.02-0.16l0,0l0,0
				c0.39-0.07,0.77-0.15,1.17-0.23c0.86-0.16,1.73-0.32,2.58-0.51c0.04-0.01,0.1-0.03,0.14-0.04c1.18-0.27,2.33-0.56,3.47-0.87
				c0.22-0.06,0.42-0.13,0.65-0.2c1.69-0.48,3.33-1.04,4.94-1.63c2.25-0.83,4.42-1.79,6.52-2.83c0.39-0.2,0.81-0.39,1.2-0.59
				c0.09-0.05,0.18-0.11,0.28-0.15c0.93-0.49,1.86-1.01,2.76-1.55c4.89-2.92,9.32-6.45,13.35-10.54c0.07-0.07,0.13-0.13,0.21-0.2
				c3.27-3.34,6.26-7.05,9-11.08c0.33-0.49,0.57-1.06,0.84-1.6C300.5,243.28,287.36,252,273.18,256.7z"/>
			<path fill="none" d="M251.71,247.24c12.6-4.66,22.47-12.51,28.43-24.77c4.21-8.64,5.12-17.82,4.08-27.28
				c-0.35-3.19-0.84-6.36-0.99-9.56c-0.2-4.25,0.79-8.21,3.5-11.63c0.61-0.77,1.13-1.61,1.65-2.34c-4.09-2.59-7.92-5.14-11.88-7.5
				c-3.2-1.91-6.65-2.95-10.49-2.61c-5.33,0.47-9.49,3.12-12.74,7.05c-3.63,4.38-7.08,8.93-10.37,13.57
				c5.25-2.11,10.37-2.34,14.86-0.53c3.37,1.36,6.06,3.81,7.87,6.88c1.37,2.34,2.26,5.03,2.46,7.96l0.01,0.21
				c0.09,13.47-4.32,24.46-13.09,32.64c-7.74,7.22-17.77,11.23-27.21,13.44c-0.99,0.23-1.97,0.44-2.93,0.63
				c-0.08,0.04-0.16,0.07-0.24,0.11c-2.95,2.09-5.62,4.57-8.53,7.02c0.64,0.26,1.06,0.54,1.5,0.6c1.59,0.22,3.18,0.46,4.77,0.54
				C232.42,252.18,242.23,250.75,251.71,247.24z"/>
			<path fill="none" d="M305.52,159.04c-15.69-15.34-34.36-21.69-56.17-18.93c-13.12,1.66-24.57,7.08-34.36,15.71
				c-14.92,13.15-22.24,30.03-22.77,49.85c-0.1,3.85,0.26,7.72,0.52,11.57c0.38,5.75,1.73,11.33,3.38,16.83
				c0.27,0.89,0.84,1.68,1.46,2.87c0.77-1.08,1.2-1.66,1.62-2.26c6.32-9.37,12.57-18.78,18.95-28.12
				c7.07-10.34,14.22-20.62,21.4-30.88c0.45-0.64,0.9-1.27,1.35-1.91c1.44-2.05,2.93-4.07,4.5-6.02c0.74-0.93,1.52-1.84,2.32-2.74
				c0.65-0.72,1.3-1.43,1.99-2.12c0.47-0.47,0.95-0.92,1.44-1.38c0.28-0.26,0.76-0.66,1.05-0.9c0.3-0.24,0.59-0.49,0.9-0.73
				c0.91-0.68,1.86-1.28,2.84-1.81c0.12-0.06,0.22-0.13,0.34-0.2c1.64-0.86,3.37-1.52,5.14-1.97c0.1-0.03,0.19-0.06,0.29-0.08
				c6.25-1.54,13.06-0.59,18.82,2.88c0.99,0.6,1.95,1.26,2.93,1.88c1.32,0.84,2.63,1.71,3.89,2.63c3.99,2.96,8.21,5.27,13.15,6.06
				c0.97,0.15,1.91,0.52,2.86,0.79c0.03,0.21,0.04,0.41,0.07,0.62c-1.37,0.67-2.76,1.32-4.12,2.02c-6.22,3.19-9.49,8.13-9.03,15.26
				c0.17,2.67,0.43,5.32,0.66,7.99c0.04,0.38,0.07,0.75,0.1,1.14c0.32,3.76,0.29,7.55-0.13,11.28c-0.01,0.08-0.01,0.16-0.02,0.23
				c-0.3,2.49-0.78,4.95-1.44,7.37c-0.35,1.28-0.74,2.56-1.19,3.81c-6.35,17.39-19.06,28.06-36.28,33.74
				c-0.68,0.22-1.36,0.48-2.03,0.71c6.17-0.1,12.22-0.66,18.15-2.22c10.76-2.84,20.25-8.04,28.49-15.47
				c8.59-7.75,15.15-16.94,19.34-27.79c3.13-8.1,4.24-16.51,4.71-25.09c0.16-2.95-0.49-5.51-2-8.02
				C314.99,169.51,310.61,164.01,305.52,159.04z"/>
			<g>
				<path fill="none" d="M250.37,224.35c7.3-6.81,10.97-16.06,10.91-27.5c-0.17-2.3-0.96-4.32-2.2-5.92
					c-1.01-1.3-2.32-2.34-3.89-2.97c-5.12-2.07-11.95,0.25-18.77,6.35c-1.87,2.49-18.21,26-30.86,44.25
					c4.42-0.07,10.79-0.47,17.64-1.8C232.59,234.93,242.88,231.34,250.37,224.35z"/>
				<path fill="none" d="M210.69,150.88c5.73-5.28,12.25-9.35,19.38-12.47c11.16-4.88,22.78-6.82,34.95-5.68
					c9.41,0.88,18.25,3.41,26.51,7.97c10.29,5.68,19.07,13.1,26.49,22.31c-0.1-0.34-0.15-0.7-0.29-1.02
					c-4.6-11.04-11.91-19.99-21.18-27.42c-10.74-8.62-22.83-13.89-36.61-15.51c-7.39-0.87-14.69-1.01-21.95,0.26
					c-14.28,2.5-26.71,8.84-37.22,18.82c-13.23,12.56-20.09,28.18-21.5,46.2c-0.86,11.08,0.53,21.99,4.11,32.55
					c1.01,2.99,2.39,5.85,3.6,8.77c-0.03-3.41-0.66-6.61-0.99-9.85c-0.82-7.92-0.5-15.8,1.11-23.6c1.62-7.84,4.02-15.41,8.02-22.42
					C199.24,162.59,204.62,156.46,210.69,150.88z"/>
				<path fill="none" d="M211.7,245.13c-3.86,0.6-11.92,3.29-17.9,8c-6.15,4.84-9.74,12.28-12.12,16.66l-0.01,0.01l0,0
					c-0.15,0.28-0.3,0.54-0.43,0.79c0.22-0.19,0.45-0.37,0.68-0.56c2.49-2.05,5-4.1,7.49-6.15c7.59-6.24,15.2-12.48,22.9-18.8
					c-0.01,0-0.02,0-0.02,0C212.1,245.1,211.88,245.11,211.7,245.13z"/>
				<path fill="none" d="M305.52,159.04c-15.69-15.34-34.36-21.69-56.17-18.93c-13.12,1.66-24.57,7.08-34.36,15.71
					c-14.92,13.15-22.24,30.03-22.77,49.85c-0.1,3.85,0.26,7.72,0.52,11.57c0.38,5.75,1.73,11.33,3.38,16.83
					c0.27,0.89,0.84,1.68,1.46,2.87c0.77-1.08,1.2-1.66,1.62-2.26c6.32-9.37,12.57-18.78,18.95-28.12
					c7.07-10.34,14.22-20.62,21.4-30.88c0.45-0.64,0.9-1.27,1.35-1.91c1.44-2.05,2.93-4.07,4.5-6.02c0.74-0.93,1.52-1.84,2.32-2.74
					c0.65-0.72,1.3-1.43,1.99-2.12c0.47-0.47,0.95-0.92,1.44-1.38c0.28-0.26,0.76-0.66,1.05-0.9c0.3-0.24,0.59-0.49,0.9-0.73
					c0.91-0.68,1.86-1.28,2.84-1.81c0.12-0.06,0.22-0.13,0.34-0.2c1.64-0.86,3.37-1.52,5.14-1.97c0.1-0.03,0.19-0.06,0.29-0.08
					c6.25-1.54,13.06-0.59,18.82,2.88c0.99,0.6,1.95,1.26,2.93,1.88c1.32,0.84,2.63,1.71,3.89,2.63c3.99,2.96,8.21,5.27,13.15,6.06
					c0.97,0.15,1.91,0.52,2.86,0.79c0.03,0.21,0.04,0.41,0.07,0.62c-1.37,0.67-2.76,1.32-4.12,2.02c-6.22,3.19-9.49,8.13-9.03,15.26
					c0.17,2.67,0.43,5.32,0.66,7.99c0.04,0.38,0.07,0.75,0.1,1.14c0.32,3.76,0.29,7.55-0.13,11.28c-0.01,0.08-0.01,0.16-0.02,0.23
					c-0.3,2.49-0.78,4.95-1.44,7.37c-0.35,1.28-0.74,2.56-1.19,3.81c-6.35,17.39-19.06,28.06-36.28,33.74
					c-0.68,0.22-1.36,0.48-2.03,0.71c6.17-0.1,12.22-0.66,18.15-2.22c10.76-2.84,20.25-8.04,28.49-15.47
					c8.59-7.75,15.15-16.94,19.34-27.79c3.13-8.1,4.24-16.51,4.71-25.09c0.16-2.95-0.49-5.51-2-8.02
					C314.99,169.51,310.61,164.01,305.52,159.04z"/>
				<path fill="none" d="M251.71,247.24c12.6-4.66,22.47-12.51,28.43-24.77c4.21-8.64,5.12-17.82,4.08-27.28
					c-0.35-3.19-0.84-6.36-0.99-9.56c-0.2-4.25,0.79-8.21,3.5-11.63c0.61-0.77,1.13-1.61,1.65-2.34c-4.09-2.59-7.92-5.14-11.88-7.5
					c-3.2-1.91-6.65-2.95-10.49-2.61c-5.33,0.47-9.49,3.12-12.74,7.05c-3.63,4.38-7.08,8.93-10.37,13.57
					c5.25-2.11,10.37-2.34,14.86-0.53c3.37,1.36,6.06,3.81,7.87,6.88c1.37,2.34,2.26,5.03,2.46,7.96l0.01,0.21
					c0.09,13.47-4.32,24.46-13.09,32.64c-7.74,7.22-17.77,11.23-27.21,13.44c-0.99,0.23-1.97,0.44-2.93,0.63
					c-0.08,0.04-0.16,0.07-0.24,0.11c-2.95,2.09-5.62,4.57-8.53,7.02c0.64,0.26,1.06,0.54,1.5,0.6c1.59,0.22,3.18,0.46,4.77,0.54
					C232.42,252.18,242.23,250.75,251.71,247.24z"/>
				<path fill="none" d="M273.18,256.7c-15,4.97-31.22,5.43-49.3,1.06c0.15,0.1,0.3,0.22,0.47,0.29c1.44,0.57,2.91,1.05,4.38,1.49
					c4.69,1.4,9.52,2.2,14.45,2.65c0.24,0.02,0.48,0.05,0.73,0.07l0,0c0.01,0,0.02,0,0.02,0c2.59,0.22,5.21,0.34,7.81,0.34
					c0.18,0,0.37-0.01,0.55-0.01c3.29-0.02,6.59-0.21,9.85-0.65c0.52-0.07,1.03-0.15,1.55-0.23c0.34-0.05,0.68-0.1,1.02-0.16l0,0
					l0,0c0.39-0.07,0.77-0.15,1.17-0.23c0.86-0.16,1.73-0.32,2.58-0.51c0.04-0.01,0.1-0.03,0.14-0.04c1.18-0.27,2.33-0.56,3.47-0.87
					c0.22-0.06,0.42-0.13,0.65-0.2c1.69-0.48,3.33-1.04,4.94-1.63c2.25-0.83,4.42-1.79,6.52-2.83c0.39-0.2,0.81-0.39,1.2-0.59
					c0.09-0.05,0.18-0.11,0.28-0.15c0.93-0.49,1.86-1.01,2.76-1.55c4.89-2.92,9.32-6.45,13.35-10.54c0.07-0.07,0.13-0.13,0.21-0.2
					c3.27-3.34,6.26-7.05,9-11.08c0.33-0.49,0.57-1.06,0.84-1.6C300.5,243.28,287.36,252,273.18,256.7z"/>
				<path fill="#F3EFE3" d="M328.21,177.58c-1.49-10.63-7.98-26.48-14.45-35.04c-11.08-14.64-25.91-24.36-44.44-28.93
					c-7.97-1.97-16.09-2.62-24.37-1.89c-7.94,0.7-15.63,2.17-23.01,5.12c-11.2,4.47-20.86,11.24-29.1,20.03
					c-11.23,11.99-17.57,26.3-19.83,42.45c-1.11,7.97-0.81,15.95,0.37,23.95c2.04,13.82,7.36,26.16,15.71,37.28
					c1.01,1.34,2.07,2.63,3.12,3.95c-0.66,0.96-1.25,1.81-1.85,2.66c-5.8,8.25-11.64,16.45-17.36,24.75
					c-1.64,2.39-3.08,4.95-4.27,7.59c-1.01,2.23,0.66,4.58,3.02,4.51c0.86-0.03,1.82-0.48,2.54-1.01c4.01-2.96,8.02-5.94,11.94-9.05
					c7.09-5.63,14.1-11.35,21.4-17.25c1.98,1.2,3.78,2.4,5.67,3.41c11.51,6.2,23.94,8.88,36.88,9.16
					c9.77,0.22,19.29-1.47,28.45-5.01c20.88-8.06,35.76-22.41,44.19-43.09C328.51,207.24,330.31,192.61,328.21,177.58z
					 M187.11,192.22c-1.62,7.8-1.93,15.69-1.11,23.6c0.33,3.23,0.96,6.43,0.99,9.85c-1.21-2.92-2.58-5.78-3.6-8.77
					c-3.58-10.55-4.98-21.47-4.11-32.55c1.4-18.02,8.27-33.65,21.5-46.2c10.51-9.98,22.95-16.33,37.22-18.82
					c7.27-1.27,14.57-1.13,21.95-0.26c13.78,1.62,25.87,6.9,36.61,15.51c9.27,7.43,16.59,16.38,21.18,27.42
					c0.13,0.32,0.2,0.68,0.29,1.02c-7.42-9.21-16.21-16.63-26.49-22.31c-8.26-4.56-17.11-7.09-26.51-7.97
					c-12.18-1.14-23.79,0.8-34.95,5.68c-7.13,3.11-13.64,7.19-19.38,12.47c-6.07,5.58-11.45,11.71-15.56,18.92
					C191.13,176.81,188.73,184.37,187.11,192.22z M189.4,263.88c-2.49,2.05-5,4.1-7.49,6.15c-0.22,0.19-0.45,0.37-0.68,0.56
					c0.14-0.25,0.29-0.51,0.43-0.79l0,0l0.01-0.01c2.38-4.38,5.98-11.82,12.12-16.66c5.98-4.71,14.04-7.4,17.9-8
					c0.19-0.01,0.4-0.04,0.59-0.04c0.01,0,0.02,0,0.02,0C204.61,251.41,197,257.65,189.4,263.88z M205.58,238.55
					c12.65-18.25,28.99-41.77,30.86-44.25c6.81-6.1,13.63-8.42,18.77-6.35c1.57,0.64,2.88,1.67,3.89,2.97
					c1.24,1.61,2.03,3.63,2.2,5.92c0.05,11.43-3.62,20.69-10.91,27.5c-7.48,6.99-17.78,10.57-27.16,12.4
					C216.36,238.09,210,238.48,205.58,238.55z M217.57,251.13c-0.45-0.06-0.86-0.34-1.5-0.6c2.92-2.45,5.58-4.93,8.53-7.02
					c0.08-0.04,0.16-0.07,0.24-0.11c0.97-0.2,1.95-0.4,2.93-0.63c9.44-2.21,19.48-6.23,27.21-13.44
					c8.78-8.18,13.18-19.17,13.09-32.64l-0.01-0.21c-0.2-2.92-1.08-5.62-2.46-7.96c-1.81-3.08-4.51-5.53-7.87-6.88
					c-4.5-1.81-9.61-1.58-14.86,0.53c3.29-4.64,6.75-9.19,10.37-13.57c3.26-3.93,7.41-6.59,12.74-7.05c3.84-0.34,7.3,0.7,10.49,2.61
					c3.95,2.36,7.79,4.91,11.88,7.5c-0.51,0.74-1.04,1.57-1.65,2.34c-2.71,3.42-3.7,7.39-3.5,11.63c0.14,3.2,0.64,6.37,0.99,9.56
					c1.04,9.45,0.13,18.64-4.08,27.28c-5.96,12.26-15.83,20.11-28.43,24.77c-9.48,3.5-19.29,4.94-29.37,4.42
					C220.74,251.58,219.14,251.35,217.57,251.13z M310.97,231.11c-2.74,4.05-5.73,7.75-9,11.08c-0.06,0.07-0.13,0.13-0.21,0.2
					c-4.03,4.08-8.46,7.62-13.35,10.54c-0.91,0.54-1.83,1.05-2.76,1.55c-0.09,0.05-0.18,0.11-0.28,0.15
					c-0.39,0.21-0.8,0.39-1.2,0.59c-2.09,1.05-4.26,1.99-6.52,2.83c-1.61,0.6-3.25,1.15-4.94,1.63c-0.22,0.06-0.42,0.13-0.65,0.2
					c-1.14,0.31-2.3,0.61-3.47,0.87c-0.04,0.01-0.1,0.03-0.14,0.04c-0.84,0.19-1.71,0.35-2.58,0.51c-0.39,0.07-0.77,0.16-1.17,0.23
					l0,0l0,0c-0.34,0.06-0.68,0.11-1.02,0.16c-0.52,0.08-1.03,0.17-1.55,0.23c-3.27,0.44-6.56,0.63-9.85,0.65
					c-0.18,0-0.37,0.01-0.55,0.01c-2.6-0.01-5.21-0.13-7.81-0.34c-0.01,0-0.02,0-0.02,0l0,0c-0.24-0.02-0.48-0.04-0.73-0.07
					c-4.94-0.45-9.76-1.25-14.45-2.65c-1.47-0.44-2.93-0.92-4.38-1.49c-0.17-0.06-0.31-0.19-0.47-0.29
					c18.08,4.37,34.3,3.92,49.3-1.06c14.19-4.7,27.32-13.42,38.63-27.18C311.53,230.05,311.3,230.62,310.97,231.11z M315.93,208.75
					c-4.19,10.86-10.75,20.04-19.34,27.79c-8.24,7.43-17.73,12.64-28.49,15.47c-5.92,1.56-11.98,2.13-18.15,2.22
					c0.67-0.24,1.35-0.48,2.03-0.71c17.21-5.69,29.92-16.35,36.28-33.74c0.46-1.26,0.84-2.53,1.19-3.81
					c0.66-2.41,1.15-4.88,1.44-7.37c0.01-0.08,0.01-0.16,0.02-0.23c0.42-3.73,0.45-7.52,0.13-11.28c-0.04-0.38-0.07-0.75-0.1-1.14
					c-0.23-2.66-0.49-5.32-0.66-7.99c-0.46-7.13,2.81-12.07,9.03-15.26c1.36-0.7,2.75-1.35,4.12-2.02
					c-0.03-0.21-0.04-0.41-0.07-0.62c-0.95-0.27-1.89-0.63-2.86-0.79c-4.94-0.79-9.15-3.1-13.15-6.06
					c-1.26-0.93-2.57-1.79-3.89-2.63c-0.98-0.63-1.93-1.28-2.93-1.88c-5.76-3.47-12.57-4.42-18.82-2.88
					c-0.1,0.03-0.19,0.06-0.29,0.08c-1.77,0.46-3.5,1.11-5.14,1.97c-0.12,0.06-0.22,0.13-0.34,0.2c-0.98,0.54-1.93,1.14-2.84,1.81
					c-0.31,0.23-0.6,0.48-0.9,0.73c-0.3,0.24-0.77,0.64-1.05,0.9c-0.49,0.45-0.97,0.91-1.44,1.38c-0.68,0.68-1.35,1.4-1.99,2.12
					c-0.8,0.89-1.57,1.8-2.32,2.74c-1.57,1.95-3.05,3.98-4.5,6.02c-0.45,0.64-0.9,1.27-1.35,1.91
					c-7.19,10.26-14.33,20.54-21.4,30.88c-6.38,9.32-12.64,18.74-18.95,28.12c-0.4,0.6-0.84,1.18-1.62,2.26
					c-0.62-1.19-1.2-1.98-1.46-2.87c-1.65-5.5-3-11.07-3.38-16.83c-0.25-3.85-0.62-7.72-0.52-11.57
					c0.52-19.82,7.83-36.7,22.77-49.85c9.79-8.62,21.23-14.05,34.36-15.71c21.81-2.76,40.49,3.59,56.17,18.93
					c5.09,4.97,9.47,10.48,13.12,16.59c1.51,2.52,2.16,5.08,2,8.02C320.16,192.23,319.05,200.65,315.93,208.75z"/>
			</g>
		</g>
	</g>
	<g>
		<path fill="#F3EFE3" d="M108.63,311.67c0,0.39,0.5,0.59,0.75,0.28c3.31-4.16,8.16-5.74,12.67-5.74c9.91,0,16.73,6.72,16.73,16.99
			v23.16c0,1.74-1.41,3.16-3.16,3.16l0,0c-1.74,0-3.16-1.41-3.16-3.16v-20.96c0-8.07-4.24-12.82-11.56-12.82
			c-6.73,0-12.28,4.94-12.28,13v20.79c0,1.74-1.41,3.16-3.16,3.16h-0.04c-1.74,0-3.16-1.41-3.16-3.16v-58.25
			c0-1.74,1.41-3.16,3.16-3.16h0.04c1.74,0,3.16,1.41,3.16,3.16V311.67z"/>
		<path fill="#F3EFE3" d="M194.43,327.43c0,12.6-9.06,22.1-21.13,22.1c-12.07,0-21.09-9.5-21.09-22.1
			c0-12.56,9.02-22.06,21.09-22.06C185.36,305.37,194.43,314.88,194.43,327.43z M158.65,327.43c0,9.19,6.31,15.83,14.66,15.83
			c8.3,0,14.66-6.64,14.66-15.83c0-9.15-6.35-15.78-14.66-15.78C164.96,311.65,158.65,318.28,158.65,327.43z"/>
		<path fill="#F3EFE3" d="M249.32,327.43c0,12.78-8.77,22.1-20.03,22.1c-6.1,0-10.68-2.41-13.85-6.17
			c-0.26-0.31-0.76-0.14-0.76,0.26v19.82c0,1.75-1.42,3.17-3.17,3.17h-0.02c-1.75,0-3.17-1.42-3.17-3.17v-54.05
			c0-1.75,1.42-3.17,3.17-3.17h0.02c1.75,0,3.17,1.42,3.17,3.17v1.88c0,0.4,0.5,0.57,0.76,0.26c3.17-3.76,7.75-6.17,13.85-6.17
			C240.55,305.37,249.32,314.7,249.32,327.43z M214.25,327.43c0,9.01,5.89,15.83,14.27,15.83c8.6,0,14.31-7.04,14.31-15.83
			c0-8.74-5.8-15.78-14.31-15.78C220.14,311.65,214.25,318.46,214.25,327.43z"/>
		<path fill="#F3EFE3" d="M298.01,348.68L298.01,348.68c-1.74,0-3.16-1.41-3.16-3.16v-1.93c0-0.4-0.5-0.57-0.76-0.26
			c-3.18,3.8-7.79,6.2-13.89,6.2c-11.26,0-20.03-9.32-20.03-22.1c0-12.74,8.77-22.06,20.03-22.06c6.1,0,10.72,2.45,13.89,6.21
			c0.26,0.31,0.76,0.14,0.76-0.26v-1.94c0-1.74,1.41-3.16,3.16-3.16l0,0c1.74,0,3.16,1.41,3.16,3.16v36.15
			C301.16,347.27,299.75,348.68,298.01,348.68z M266.6,327.43c0,8.79,5.84,15.83,14.36,15.83c8.35,0,14.27-6.81,14.27-15.83
			c0-8.97-5.92-15.78-14.27-15.78C272.36,311.65,266.6,318.69,266.6,327.43z"/>
		<path fill="#F3EFE3" d="M346.46,312.55c-0.73,1.37-2.41,1.97-3.81,1.27c-2.78-1.39-6.69-2.58-10.75-2.58
			c-5.72,0-9.49,2.56-9.49,6.68c0,3.55,2.93,5.3,8.18,5.96l4.74,0.63c8.51,1.17,13.46,4.88,13.46,11.84
			c0,8.07-6.86,13.14-17.66,13.14c-4.43,0-9.85-1-14.5-3.86c-1.3-0.8-1.67-2.52-0.91-3.84l0.02-0.04c0.82-1.41,2.63-1.82,4.02-0.97
			c2.76,1.67,6.33,2.87,11.45,2.87c6.78,0,11.06-2.38,11.06-6.86c0-3.41-2.71-5.47-8.38-6.18l-4.78-0.58
			c-9.02-1.17-13.26-5.42-13.26-11.75c0-8.02,6.4-12.87,16.01-12.87c5.06,0,9.77,1.21,13.43,3.11c1.42,0.74,1.97,2.49,1.23,3.9
			L346.46,312.55z"/>
		<path fill="#F3EFE3" d="M397.72,327.3v2.08c0,0.23-0.19,0.43-0.43,0.43h-31.35c-0.26,0-0.47,0.23-0.43,0.49
			c1.05,8.82,7.02,13.36,14.14,13.36c4,0,9.11-1.32,12.15-3.58c1.19-0.88,2.85-0.69,3.73,0.49l0,0c1.04,1.4,0.73,3.36-0.65,4.43
			c-4.37,3.4-10.64,4.52-15.62,4.52c-11.86,0-20.28-8.92-20.28-22.06c0-13,8.47-22.1,19.91-22.1
			C389.76,305.37,397.63,314.39,397.72,327.3z M366.04,324.39h24.75c0.26,0,0.47-0.23,0.43-0.49c-0.95-7.66-5.81-12.56-12.48-12.56
			c-7.24,0-11.98,5.14-13.14,12.55C365.57,324.15,365.77,324.39,366.04,324.39z"/>
	</g>
</g>
</svg>
